Disc Title:     Trolls World Tour
Disc Label:     Trolls.World.Tour.2020.MULTi.COMPLETE.BLURAY-SharpHD
Disc Size:      45,418,268,943 bytes
Protection:     AACS
Extras:         BD-Java
BDInfo:         0.7.5.5

Notes:          

BDINFO HOME:
  Cinema Squid (old)
    http://www.cinemasquid.com/blu-ray/tools/bdinfo
  UniqProject GitHub (new)
   https://github.com/UniqProject/BDInfo

INCLUDES FORUMS REPORT FOR:
  AVS Forum Blu-ray Audio and Video Specifications Thread
    http://www.avsforum.com/avs-vb/showthread.php?t=1155731


********************
PLAYLIST: 00801.MPLS
********************

<--- BEGIN FORUMS PASTE --->
[code]
                                                                                                                Total   Video                                             
Title                                                           Codec   Length  Movie Size      Disc Size       Bitrate Bitrate Main Audio Track                          Secondary Audio Track
-----                                                           ------  ------- --------------  --------------  ------- ------- ------------------                        ---------------------
00801.MPLS                                                      AVC     1:30:47 14,464,198,656  45,418,268,943  21.24   19.83   DD AC3 5.1 448Kbps                        
[/code]

[code]

DISC INFO:

Disc Title:     Trolls World Tour
Disc Label:     Trolls.World.Tour.2020.MULTi.COMPLETE.BLURAY-SharpHD
Disc Size:      45,418,268,943 bytes
Protection:     AACS
Extras:         BD-Java
BDInfo:         0.7.5.5

PLAYLIST REPORT:

Name:                   00801.MPLS
Length:                 1:30:47.024 (h:m:s.ms)
Size:                   14,464,198,656 bytes
Total Bitrate:          21.24 Mbps

VIDEO:

Codec                   Bitrate             Description     
-----                   -------             -----------     
MPEG-4 AVC Video        19827 kbps          1080p / 23.976 fps / 16:9 / High Profile 4.1

AUDIO:

Codec                           Language        Bitrate         Description     
-----                           --------        -------         -----------     
Dolby Digital Audio             German          448 kbps        5.1 / 48 kHz /   448 kbps / DN -27dB

SUBTITLES:

Codec                           Language        Bitrate         Description     
-----                           --------        -------         -----------     
Presentation Graphics           German          1.520 kbps                      

FILES:

Name            Time In         Length          Size            Total Bitrate   
----            -------         ------          ----            -------------   
00481.M2TS      0:00:00.000     1:30:47.024     14,464,198,656  21,243          

CHAPTERS:

Number          Time In         Length          Avg Video Rate  Max 1-Sec Rate  Max 1-Sec Time  Max 5-Sec Rate  Max 5-Sec Time  Max 10Sec Rate  Max 10Sec Time  Avg Frame Size  Max Frame Size  Max Frame Time  
------          -------         ------          --------------  --------------  --------------  --------------  --------------  --------------  --------------  --------------  --------------  --------------  
1               0:00:00.000     0:05:12.770     19,379 kbps     40,022 kbps     00:04:11.834    24,895 kbps     00:02:12.257    23,741 kbps     00:04:40.488    101,021 bytes   779,616 bytes   00:00:44.252    
2               0:05:12.770     0:03:32.128     19,948 kbps     41,155 kbps     00:05:13.855    24,757 kbps     00:07:50.887    22,599 kbps     00:07:13.141    103,997 bytes   640,545 bytes   00:05:48.389    
3               0:08:44.899     0:04:06.829     19,875 kbps     33,121 kbps     00:11:08.918    23,528 kbps     00:09:42.707    22,092 kbps     00:09:39.620    103,619 bytes   581,622 bytes   00:10:38.179    
4               0:12:51.729     0:05:34.083     19,410 kbps     35,251 kbps     00:13:42.112    25,038 kbps     00:12:52.563    23,169 kbps     00:12:53.856    101,196 bytes   783,340 bytes   00:13:32.144    
5               0:18:25.813     0:04:33.022     19,563 kbps     38,879 kbps     00:18:32.653    25,446 kbps     00:18:29.108    21,909 kbps     00:20:58.131    101,991 bytes   761,841 bytes   00:20:22.596    
6               0:22:58.835     0:04:37.568     20,006 kbps     31,834 kbps     00:24:13.952    23,452 kbps     00:24:33.138    21,847 kbps     00:25:19.476    104,301 bytes   713,161 bytes   00:27:02.579    
7               0:27:36.404     0:02:58.178     19,773 kbps     36,774 kbps     00:29:29.142    24,946 kbps     00:29:03.616    22,334 kbps     00:28:59.112    103,088 bytes   758,498 bytes   00:29:59.964    
8               0:30:34.582     0:03:48.770     19,739 kbps     32,337 kbps     00:33:17.412    24,673 kbps     00:32:48.424    22,291 kbps     00:32:48.675    102,913 bytes   657,187 bytes   00:34:07.003    
9               0:34:23.352     0:04:03.785     20,050 kbps     36,249 kbps     00:36:15.590    24,093 kbps     00:34:29.108    22,386 kbps     00:34:26.647    104,533 bytes   670,570 bytes   00:36:41.365    
10              0:38:27.138     0:02:45.957     19,805 kbps     39,940 kbps     00:38:28.305    23,295 kbps     00:39:20.524    21,946 kbps     00:39:43.089    103,254 bytes   765,007 bytes   00:40:31.345    
11              0:41:13.095     0:05:06.180     19,939 kbps     39,546 kbps     00:45:48.537    24,550 kbps     00:44:49.561    22,525 kbps     00:44:45.182    103,953 bytes   710,850 bytes   00:44:53.524    
12              0:46:19.276     0:03:53.149     20,155 kbps     32,633 kbps     00:49:18.330    24,037 kbps     00:48:26.945    23,381 kbps     00:48:21.940    105,080 bytes   629,472 bytes   00:46:35.626    
13              0:50:12.426     0:04:10.500     19,947 kbps     33,114 kbps     00:50:52.674    23,333 kbps     00:52:41.575    21,875 kbps     00:52:12.504    103,995 bytes   630,614 bytes   00:52:42.951    
14              0:54:22.926     0:04:59.799     19,954 kbps     44,006 kbps     00:58:06.149    26,607 kbps     00:58:02.562    22,705 kbps     00:58:00.894    104,033 bytes   688,593 bytes   00:58:06.441    
15              0:59:22.725     0:04:16.547     20,076 kbps     31,487 kbps     01:02:32.999    23,188 kbps     01:03:20.880    21,825 kbps     01:03:20.588    104,666 bytes   589,688 bytes   01:01:33.648    
16              1:03:39.273     0:02:46.249     20,028 kbps     39,821 kbps     01:04:27.196    25,015 kbps     01:06:17.056    22,782 kbps     01:06:12.009    104,419 bytes   609,539 bytes   01:05:14.118    
17              1:06:25.523     0:03:52.774     20,034 kbps     37,701 kbps     01:08:45.496    23,686 kbps     01:09:09.937    22,304 kbps     01:09:04.932    104,450 bytes   603,418 bytes   01:09:27.496    
18              1:10:18.297     0:05:23.531     20,073 kbps     37,331 kbps     01:13:10.386    23,562 kbps     01:13:06.548    22,334 kbps     01:13:01.543    104,654 bytes   555,064 bytes   01:11:50.556    
19              1:15:41.828     0:05:38.087     19,401 kbps     41,923 kbps     01:18:27.160    26,334 kbps     01:18:23.990    22,162 kbps     01:16:42.681    101,150 bytes   762,860 bytes   01:20:45.048    
20              1:21:19.916     0:09:27.108     19,793 kbps     38,173 kbps     01:21:29.009    25,854 kbps     01:21:42.647    24,830 kbps     01:21:39.519    103,198 bytes   746,322 bytes   01:30:02.105    

STREAM DIAGNOSTICS:

File            PID             Type            Codec           Language                Seconds                 Bitrate                 Bytes           Packets         
----            ---             ----            -----           --------                --------------          --------------          -------------   -----           
00481.M2TS      4113 (0x1011)   0x1B            AVC                                     5446.942                19,827                  13,499,506,079  73,443,707      
00481.M2TS      4352 (0x1100)   0x81            AC3             deu (German)            5446.942                448                     305,034,240     1,702,200       
00481.M2TS      4608 (0x1200)   0x90            PGS             deu (German)            5446.942                2                       1,035,139       5,966           

[/code]
<---- END FORUMS PASTE ---->

QUICK SUMMARY:

Disc Title: Trolls World Tour
Disc Label: Trolls.World.Tour.2020.MULTi.COMPLETE.BLURAY-SharpHD
Disc Size: 45,418,268,943 bytes
Protection: AACS
Playlist: 00801.MPLS
Size: 14,464,198,656 bytes
Length: 1:30:47.024
Total Bitrate: 21.24 Mbps
Video: MPEG-4 AVC Video / 19827 kbps / 1080p / 23.976 fps / 16:9 / High Profile 4.1
Audio: German / Dolby Digital Audio / 5.1 / 48 kHz /   448 kbps / DN -27dB
Subtitle: German / 1.520 kbps


********************
PLAYLIST: 00612.MPLS
********************

<--- BEGIN FORUMS PASTE --->
[code]
                                                                                                                Total   Video                                             
Title                                                           Codec   Length  Movie Size      Disc Size       Bitrate Bitrate Main Audio Track                          Secondary Audio Track
-----                                                           ------  ------- --------------  --------------  ------- ------- ------------------                        ---------------------
00612.MPLS                                                      AVC     1:30:43 23,684,167,680  45,418,268,943  34.80   23.79   Dolby Atmos 7.1 3621Kbps (48kHz/16-bit)   
[/code]

[code]

DISC INFO:

Disc Title:     Trolls World Tour
Disc Label:     Trolls.World.Tour.2020.MULTi.COMPLETE.BLURAY-SharpHD
Disc Size:      45,418,268,943 bytes
Protection:     AACS
Extras:         BD-Java
BDInfo:         0.7.5.5

PLAYLIST REPORT:

Name:                   00612.MPLS
Length:                 1:30:43.855 (h:m:s.ms)
Size:                   23,684,167,680 bytes
Total Bitrate:          34.80 Mbps

VIDEO:

Codec                   Bitrate             Description     
-----                   -------             -----------     
MPEG-4 AVC Video        23792 kbps          1080p / 23.976 fps / 16:9 / High Profile 4.1

AUDIO:

Codec                           Language        Bitrate         Description     
-----                           --------        -------         -----------     
Dolby TrueHD/Atmos Audio        English         3621 kbps       7.1 / 48 kHz /  3173 kbps / 16-bit (AC3 Embedded: 5.1 / 48 kHz /   448 kbps / DN -27dB)
Dolby TrueHD/Atmos Audio        German          3595 kbps       7.1 / 48 kHz /  3147 kbps / 16-bit (AC3 Embedded: 5.1 / 48 kHz /   448 kbps / DN -27dB)
Dolby Digital Audio             English         192 kbps        2.0 / 48 kHz /   192 kbps / DN -31dB

SUBTITLES:

Codec                           Language        Bitrate         Description     
-----                           --------        -------         -----------     
Presentation Graphics           English         48.493 kbps                     
Presentation Graphics           German          42.871 kbps                     
Presentation Graphics           English         66.056 kbps                     
Presentation Graphics           German          1.546 kbps                      

FILES:

Name            Time In         Length          Size            Total Bitrate   
----            -------         ------          ----            -------------   
00246.M2TS      0:00:00.000     1:30:43.855     23,684,167,680  34,805          

CHAPTERS:

Number          Time In         Length          Avg Video Rate  Max 1-Sec Rate  Max 1-Sec Time  Max 5-Sec Rate  Max 5-Sec Time  Max 10Sec Rate  Max 10Sec Time  Avg Frame Size  Max Frame Size  Max Frame Time  
------          -------         ------          --------------  --------------  --------------  --------------  --------------  --------------  --------------  --------------  --------------  --------------  
1               0:00:00.000     0:05:12.770     23,944 kbps     49,203 kbps     00:05:07.223    34,734 kbps     00:04:21.844    33,727 kbps     00:01:53.113    124,817 bytes   782,710 bytes   00:01:02.312    
2               0:05:12.770     0:03:32.128     24,070 kbps     50,057 kbps     00:05:13.855    29,239 kbps     00:05:17.942    27,970 kbps     00:05:13.187    125,491 bytes   736,037 bytes   00:07:12.473    
3               0:08:44.899     0:04:06.829     23,822 kbps     40,420 kbps     00:11:08.793    27,606 kbps     00:08:48.903    25,814 kbps     00:10:22.788    124,197 bytes   658,278 bytes   00:10:47.563    
4               0:12:51.729     0:05:34.083     22,727 kbps     40,455 kbps     00:13:02.865    29,348 kbps     00:15:03.694    27,738 kbps     00:14:58.439    118,489 bytes   781,870 bytes   00:14:13.269    
5               0:18:25.813     0:04:33.022     23,547 kbps     44,180 kbps     00:18:32.736    31,084 kbps     00:20:40.948    28,280 kbps     00:20:39.363    122,761 bytes   782,062 bytes   00:20:17.507    
6               0:22:58.835     0:04:37.568     23,985 kbps     37,112 kbps     00:24:13.952    28,021 kbps     00:25:19.476    26,497 kbps     00:24:28.216    125,045 bytes   753,581 bytes   00:27:04.247    
7               0:27:36.404     0:02:58.178     23,290 kbps     45,494 kbps     00:29:44.365    29,523 kbps     00:30:04.135    27,193 kbps     00:30:03.676    121,425 bytes   774,723 bytes   00:29:36.775    
8               0:30:34.582     0:03:48.770     23,449 kbps     36,273 kbps     00:32:35.078    28,644 kbps     00:33:24.085    26,169 kbps     00:32:26.486    122,255 bytes   726,547 bytes   00:34:07.003    
9               0:34:23.352     0:04:03.785     23,961 kbps     41,078 kbps     00:36:15.506    28,883 kbps     00:36:46.996    26,428 kbps     00:34:25.897    124,923 bytes   772,053 bytes   00:36:40.573    
10              0:38:27.138     0:02:45.957     23,772 kbps     42,553 kbps     00:38:28.347    26,907 kbps     00:40:18.332    26,170 kbps     00:40:50.698    123,936 bytes   773,812 bytes   00:38:52.788    
11              0:41:13.095     0:05:06.180     24,002 kbps     46,028 kbps     00:45:48.537    32,010 kbps     00:41:35.201    28,434 kbps     00:41:30.946    125,138 bytes   780,419 bytes   00:44:53.565    
12              0:46:19.276     0:03:53.149     24,114 kbps     38,667 kbps     00:49:17.996    29,031 kbps     00:48:26.111    28,025 kbps     00:48:21.940    125,719 bytes   729,191 bytes   00:49:39.851    
13              0:50:12.426     0:04:10.500     24,177 kbps     45,580 kbps     00:53:32.876    33,104 kbps     00:53:31.750    28,811 kbps     00:53:25.535    126,047 bytes   721,710 bytes   00:52:42.367    
14              0:54:22.926     0:04:59.799     23,923 kbps     43,098 kbps     00:57:51.342    34,107 kbps     00:57:47.005    29,789 kbps     00:57:42.333    124,723 bytes   711,849 bytes   00:58:06.441    
15              0:59:22.725     0:04:16.547     24,525 kbps     44,529 kbps     01:03:29.472    33,954 kbps     01:03:32.600    32,702 kbps     01:03:26.761    127,860 bytes   723,518 bytes   01:01:33.648    
16              1:03:39.273     0:02:46.249     23,905 kbps     43,959 kbps     01:04:27.196    29,357 kbps     01:05:13.284    27,055 kbps     01:05:13.284    124,629 bytes   665,984 bytes   01:04:27.405    
17              1:06:25.523     0:03:52.774     24,016 kbps     42,454 kbps     01:08:45.496    28,989 kbps     01:09:58.903    26,538 kbps     01:09:57.443    125,208 bytes   688,853 bytes   01:07:20.286    
18              1:10:18.297     0:05:23.531     24,099 kbps     41,034 kbps     01:10:45.324    28,000 kbps     01:10:45.241    26,198 kbps     01:10:39.944    125,643 bytes   578,036 bytes   01:10:49.620    
19              1:15:41.828     0:05:38.087     23,226 kbps     48,008 kbps     01:18:27.160    31,549 kbps     01:20:48.593    26,900 kbps     01:20:48.635    121,092 bytes   777,023 bytes   01:20:28.365    
20              1:21:19.916     0:09:23.938     23,688 kbps     44,874 kbps     01:21:29.092    33,552 kbps     01:22:11.843    30,081 kbps     01:22:07.297    123,507 bytes   781,056 bytes   01:30:05.942    

STREAM DIAGNOSTICS:

File            PID             Type            Codec           Language                Seconds                 Bitrate                 Bytes           Packets         
----            ---             ----            -----           --------                --------------          --------------          -------------   -----           
00246.M2TS      4113 (0x1011)   0x1B            AVC                                     5443.730                23,792                  16,189,821,382  88,064,887      
00246.M2TS      4352 (0x1100)   0x83            Atmos           eng (English)           5443.730                3,621                   2,463,973,932   16,960,962      
00246.M2TS      4353 (0x1101)   0x83            Atmos           deu (German)            5443.730                3,595                   2,446,503,310   16,679,555      
00246.M2TS      4354 (0x1102)   0x81            AC3             eng (English)           5443.730                192                     130,653,696     850,610         
00246.M2TS      4608 (0x1200)   0x90            PGS             eng (English)           5443.730                48                      32,998,815      189,548         
00246.M2TS      4609 (0x1201)   0x90            PGS             deu (German)            5443.730                43                      29,172,969      165,984         
00246.M2TS      4610 (0x1202)   0x90            PGS             eng (English)           5443.730                66                      44,949,811      255,043         
00246.M2TS      4611 (0x1203)   0x90            PGS             deu (German)            5443.730                2                       1,052,217       6,066           

[/code]
<---- END FORUMS PASTE ---->

QUICK SUMMARY:

Disc Title: Trolls World Tour
Disc Label: Trolls.World.Tour.2020.MULTi.COMPLETE.BLURAY-SharpHD
Disc Size: 45,418,268,943 bytes
Protection: AACS
Playlist: 00612.MPLS
Size: 23,684,167,680 bytes
Length: 1:30:43.855
Total Bitrate: 34.80 Mbps
Video: MPEG-4 AVC Video / 23792 kbps / 1080p / 23.976 fps / 16:9 / High Profile 4.1
Audio: English / Dolby TrueHD/Atmos Audio / 7.1 / 48 kHz /  3173 kbps / 16-bit (AC3 Embedded: 5.1 / 48 kHz /   448 kbps / DN -27dB)
Audio: German / Dolby TrueHD/Atmos Audio / 7.1 / 48 kHz /  3147 kbps / 16-bit (AC3 Embedded: 5.1 / 48 kHz /   448 kbps / DN -27dB)
Audio: English / Dolby Digital Audio / 2.0 / 48 kHz /   192 kbps / DN -31dB
Subtitle: English / 48.493 kbps
Subtitle: German / 42.871 kbps
Subtitle: English / 66.056 kbps
Subtitle: German / 1.546 kbps


********************
PLAYLIST: 00800.MPLS
********************

<--- BEGIN FORUMS PASTE --->
[code]
                                                                                                                Total   Video                                             
Title                                                           Codec   Length  Movie Size      Disc Size       Bitrate Bitrate Main Audio Track                          Secondary Audio Track
-----                                                           ------  ------- --------------  --------------  ------- ------- ------------------                        ---------------------
00800.MPLS                                                      AVC     1:30:43 23,684,167,680  45,418,268,943  34.80   23.79   Dolby Atmos 7.1 3621Kbps (48kHz/16-bit)   
[/code]

[code]

DISC INFO:

Disc Title:     Trolls World Tour
Disc Label:     Trolls.World.Tour.2020.MULTi.COMPLETE.BLURAY-SharpHD
Disc Size:      45,418,268,943 bytes
Protection:     AACS
Extras:         BD-Java
BDInfo:         0.7.5.5

PLAYLIST REPORT:

Name:                   00800.MPLS
Length:                 1:30:43.855 (h:m:s.ms)
Size:                   23,684,167,680 bytes
Total Bitrate:          34.80 Mbps

VIDEO:

Codec                   Bitrate             Description     
-----                   -------             -----------     
MPEG-4 AVC Video        23792 kbps          1080p / 23.976 fps / 16:9 / High Profile 4.1

AUDIO:

Codec                           Language        Bitrate         Description     
-----                           --------        -------         -----------     
Dolby TrueHD/Atmos Audio        English         3621 kbps       7.1 / 48 kHz /  3173 kbps / 16-bit (AC3 Embedded: 5.1 / 48 kHz /   448 kbps / DN -27dB)
Dolby TrueHD/Atmos Audio        German          3595 kbps       7.1 / 48 kHz /  3147 kbps / 16-bit (AC3 Embedded: 5.1 / 48 kHz /   448 kbps / DN -27dB)
Dolby Digital Audio             English         192 kbps        2.0 / 48 kHz /   192 kbps / DN -31dB

SUBTITLES:

Codec                           Language        Bitrate         Description     
-----                           --------        -------         -----------     
Presentation Graphics           English         48.493 kbps                     
Presentation Graphics           German          42.871 kbps                     
Presentation Graphics           English         66.056 kbps                     
Presentation Graphics           German          1.546 kbps                      

FILES:

Name            Time In         Length          Size            Total Bitrate   
----            -------         ------          ----            -------------   
00246.M2TS      0:00:00.000     1:30:43.855     23,684,167,680  34,805          

CHAPTERS:

Number          Time In         Length          Avg Video Rate  Max 1-Sec Rate  Max 1-Sec Time  Max 5-Sec Rate  Max 5-Sec Time  Max 10Sec Rate  Max 10Sec Time  Avg Frame Size  Max Frame Size  Max Frame Time  
------          -------         ------          --------------  --------------  --------------  --------------  --------------  --------------  --------------  --------------  --------------  --------------  
1               0:00:00.000     0:05:12.770     23,944 kbps     49,203 kbps     00:05:07.223    34,734 kbps     00:04:21.844    33,727 kbps     00:01:53.113    124,817 bytes   782,710 bytes   00:01:02.312    
2               0:05:12.770     0:03:32.128     24,070 kbps     50,057 kbps     00:05:13.855    29,239 kbps     00:05:17.942    27,970 kbps     00:05:13.187    125,491 bytes   736,037 bytes   00:07:12.473    
3               0:08:44.899     0:04:06.829     23,822 kbps     40,420 kbps     00:11:08.793    27,606 kbps     00:08:48.903    25,814 kbps     00:10:22.788    124,197 bytes   658,278 bytes   00:10:47.563    
4               0:12:51.729     0:05:34.083     22,727 kbps     40,455 kbps     00:13:02.865    29,348 kbps     00:15:03.694    27,738 kbps     00:14:58.439    118,489 bytes   781,870 bytes   00:14:13.269    
5               0:18:25.813     0:04:33.022     23,547 kbps     44,180 kbps     00:18:32.736    31,084 kbps     00:20:40.948    28,280 kbps     00:20:39.363    122,761 bytes   782,062 bytes   00:20:17.507    
6               0:22:58.835     0:04:37.568     23,985 kbps     37,112 kbps     00:24:13.952    28,021 kbps     00:25:19.476    26,497 kbps     00:24:28.216    125,045 bytes   753,581 bytes   00:27:04.247    
7               0:27:36.404     0:02:58.178     23,290 kbps     45,494 kbps     00:29:44.365    29,523 kbps     00:30:04.135    27,193 kbps     00:30:03.676    121,425 bytes   774,723 bytes   00:29:36.775    
8               0:30:34.582     0:03:48.770     23,449 kbps     36,273 kbps     00:32:35.078    28,644 kbps     00:33:24.085    26,169 kbps     00:32:26.486    122,255 bytes   726,547 bytes   00:34:07.003    
9               0:34:23.352     0:04:03.785     23,961 kbps     41,078 kbps     00:36:15.506    28,883 kbps     00:36:46.996    26,428 kbps     00:34:25.897    124,923 bytes   772,053 bytes   00:36:40.573    
10              0:38:27.138     0:02:45.957     23,772 kbps     42,553 kbps     00:38:28.347    26,907 kbps     00:40:18.332    26,170 kbps     00:40:50.698    123,936 bytes   773,812 bytes   00:38:52.788    
11              0:41:13.095     0:05:06.180     24,002 kbps     46,028 kbps     00:45:48.537    32,010 kbps     00:41:35.201    28,434 kbps     00:41:30.946    125,138 bytes   780,419 bytes   00:44:53.565    
12              0:46:19.276     0:03:53.149     24,114 kbps     38,667 kbps     00:49:17.996    29,031 kbps     00:48:26.111    28,025 kbps     00:48:21.940    125,719 bytes   729,191 bytes   00:49:39.851    
13              0:50:12.426     0:04:10.500     24,177 kbps     45,580 kbps     00:53:32.876    33,104 kbps     00:53:31.750    28,811 kbps     00:53:25.535    126,047 bytes   721,710 bytes   00:52:42.367    
14              0:54:22.926     0:04:59.799     23,923 kbps     43,098 kbps     00:57:51.342    34,107 kbps     00:57:47.005    29,789 kbps     00:57:42.333    124,723 bytes   711,849 bytes   00:58:06.441    
15              0:59:22.725     0:04:16.547     24,525 kbps     44,529 kbps     01:03:29.472    33,954 kbps     01:03:32.600    32,702 kbps     01:03:26.761    127,860 bytes   723,518 bytes   01:01:33.648    
16              1:03:39.273     0:02:46.249     23,905 kbps     43,959 kbps     01:04:27.196    29,357 kbps     01:05:13.284    27,055 kbps     01:05:13.284    124,629 bytes   665,984 bytes   01:04:27.405    
17              1:06:25.523     0:03:52.774     24,016 kbps     42,454 kbps     01:08:45.496    28,989 kbps     01:09:58.903    26,538 kbps     01:09:57.443    125,208 bytes   688,853 bytes   01:07:20.286    
18              1:10:18.297     0:05:23.531     24,099 kbps     41,034 kbps     01:10:45.324    28,000 kbps     01:10:45.241    26,198 kbps     01:10:39.944    125,643 bytes   578,036 bytes   01:10:49.620    
19              1:15:41.828     0:05:38.087     23,226 kbps     48,008 kbps     01:18:27.160    31,549 kbps     01:20:48.593    26,900 kbps     01:20:48.635    121,092 bytes   777,023 bytes   01:20:28.365    
20              1:21:19.916     0:09:23.938     23,688 kbps     44,874 kbps     01:21:29.092    33,552 kbps     01:22:11.843    30,081 kbps     01:22:07.297    123,507 bytes   781,056 bytes   01:30:05.942    

STREAM DIAGNOSTICS:

File            PID             Type            Codec           Language                Seconds                 Bitrate                 Bytes           Packets         
----            ---             ----            -----           --------                --------------          --------------          -------------   -----           
00246.M2TS      4113 (0x1011)   0x1B            AVC                                     5443.730                23,792                  16,189,821,382  88,064,887      
00246.M2TS      4352 (0x1100)   0x83            Atmos           eng (English)           5443.730                3,621                   2,463,973,932   16,960,962      
00246.M2TS      4353 (0x1101)   0x83            Atmos           deu (German)            5443.730                3,595                   2,446,503,310   16,679,555      
00246.M2TS      4354 (0x1102)   0x81            AC3             eng (English)           5443.730                192                     130,653,696     850,610         
00246.M2TS      4608 (0x1200)   0x90            PGS             eng (English)           5443.730                48                      32,998,815      189,548         
00246.M2TS      4609 (0x1201)   0x90            PGS             deu (German)            5443.730                43                      29,172,969      165,984         
00246.M2TS      4610 (0x1202)   0x90            PGS             eng (English)           5443.730                66                      44,949,811      255,043         
00246.M2TS      4611 (0x1203)   0x90            PGS             deu (German)            5443.730                2                       1,052,217       6,066           

[/code]
<---- END FORUMS PASTE ---->

QUICK SUMMARY:

Disc Title: Trolls World Tour
Disc Label: Trolls.World.Tour.2020.MULTi.COMPLETE.BLURAY-SharpHD
Disc Size: 45,418,268,943 bytes
Protection: AACS
Playlist: 00800.MPLS
Size: 23,684,167,680 bytes
Length: 1:30:43.855
Total Bitrate: 34.80 Mbps
Video: MPEG-4 AVC Video / 23792 kbps / 1080p / 23.976 fps / 16:9 / High Profile 4.1
Audio: English / Dolby TrueHD/Atmos Audio / 7.1 / 48 kHz /  3173 kbps / 16-bit (AC3 Embedded: 5.1 / 48 kHz /   448 kbps / DN -27dB)
Audio: German / Dolby TrueHD/Atmos Audio / 7.1 / 48 kHz /  3147 kbps / 16-bit (AC3 Embedded: 5.1 / 48 kHz /   448 kbps / DN -27dB)
Audio: English / Dolby Digital Audio / 2.0 / 48 kHz /   192 kbps / DN -31dB
Subtitle: English / 48.493 kbps
Subtitle: German / 42.871 kbps
Subtitle: English / 66.056 kbps
Subtitle: German / 1.546 kbps

